<svg height="512" viewBox="0 0 512 512" width="512" xmlns="http://www.w3.org/2000/svg"><g id="fileed_outline" data-name="fileed outline"><path d="m456 384 32 8v32h-120v-40z" fill="#0198cb"/><circle cx="456" cy="424" fill="#b9b9b9" r="16"/><path d="m32 104h80a8 8 0 0 1 8 8v88a0 0 0 0 1 0 0h-96a0 0 0 0 1 0 0v-88a8 8 0 0 1 8-8z" fill="#dbdbdb"/><circle cx="72" cy="152" fill="#01afea" r="24"/><path d="m250.882 219.482-61.782-51.482h-69.1v-16h72a8 8 0 0 1 5.122 1.854l64 53.336z" fill="#c1e3f7"/><path d="m314.854 229.65-14.707-6.3 28.5-66.5a8 8 0 0 1 7.353-4.85h40v16h-34.725z" fill="#c1e3f7"/><path d="m95.543 349.943-12.8-9.6 30.857-41.143a8 8 0 0 1 6.4-3.2h33v16h-29z" fill="#c1e3f7"/><path d="m320 240a48 48 0 0 0 -91.038-21.256 32 32 0 0 0 -44.076 21.784 48.008 48.008 0 0 0 -40.886 47.472 48 48 0 0 0 48 48h128a48 48 0 0 0 48-48 48 48 0 0 0 -48-48z" fill="#01afea"/><rect fill="#ebebeb" height="176" rx="14" width="96" x="208" y="304"/><path d="m208 336h96v112h-96z" fill="#04957c"/><g fill="#2ad3b3"><path d="m278.627 385.373a32 32 0 0 0 -45.254 0l-11.314-11.314a48 48 0 0 1 67.882 0z"/><path d="m261.656 402.343a8 8 0 0 0 -11.312 0l-11.315-11.313a24 24 0 0 1 33.942 0z"/><path d="m397.657 321.373-11.314-11.314a48 48 0 0 1 67.883 0l-11.315 11.314a32 32 0 0 0 -45.254 0z"/><path d="m425.941 338.343a8 8 0 0 0 -11.313 0l-11.315-11.313a24 24 0 0 1 33.942 0z"/><circle cx="256" cy="416" r="8"/></g><path d="m190 32h132a6 6 0 0 1 6 6v50a0 0 0 0 1 0 0h-144a0 0 0 0 1 0 0v-50a6 6 0 0 1 6-6z" fill="#dbdbdb"/><path d="m216 64h80v24h-80z" fill="#fbfbf9"/><path d="m416 208h32l8 24h-48z" fill="#cbcbcb"/><path d="m450.67 216h-37.34l2.67-8h32z" fill="#cbcbcb"/><path d="m488 176h-112v24a8 8 0 0 0 8 8h96a8 8 0 0 0 8-8z" fill="#dbdbdb"/><path d="m72 184a32 32 0 1 1 32-32 32.036 32.036 0 0 1 -32 32zm0-48a16 16 0 1 0 16 16 16.019 16.019 0 0 0 -16-16z" fill="#fbfbf9"/><path d="m24 200h96v32h-96z" fill="#cbcbcb"/><path d="m32 360h96v72h-96z" fill="#dbdbdb"/><path d="m80 328-56 32h112z" fill="#0198cb"/><path d="m64 392h32v40h-32z" fill="#0198cb"/><path d="m368 384 16-24h56l16 24z" fill="#c1e3f7"/><circle cx="400" cy="424" fill="#b9b9b9" r="16"/><circle cx="400" cy="424" fill="#dbdbdb" r="8"/><circle cx="456" cy="424" fill="#dbdbdb" r="8"/><path d="m280 240h-16v-67.719l-44.438-29.625a8 8 0 0 1 -3.562-6.656v-24h16v19.719l44.437 29.625a8 8 0 0 1 3.563 6.656z" fill="#c1e3f7"/><circle cx="272" cy="256" fill="#c1e3f7" r="24"/><path d="m184 264h16v16h-16z" fill="#bce1ff"/><path d="m216 264h16v16h-16z" fill="#bce1ff"/><path d="m312 264h16v16h-16z" fill="#bce1ff"/><path d="m24 200h96v8h-96z" fill="#b9b9b9"/><path d="m216 80h80v8h-80z" fill="#01afea"/><path d="m32 360h96v8h-96z" fill="#c3c3c3"/><path d="m450.67 216h-37.34l2.67-8h32z" fill="#b9b9b9"/><path d="m384 128h96a8 8 0 0 1 8 8v48a0 0 0 0 1 0 0h-112a0 0 0 0 1 0 0v-48a8 8 0 0 1 8-8z" fill="#04957c"/><path d="m400 360h16v24h-16z" fill="#0198cb"/><path d="m296 336h8v112h-8z" fill="#27c5a7"/><path d="m256 376a31.789 31.789 0 0 1 22.627 9.373l11.314-11.314a48 48 0 0 0 -67.882 0l11.314 11.314a31.789 31.789 0 0 1 22.627-9.373z"/><path d="m239.029 391.03 11.315 11.313a8 8 0 0 1 11.312 0l11.315-11.313a24 24 0 0 0 -33.942 0z"/><path d="m454.226 310.059a48 48 0 0 0 -67.883 0l11.314 11.314a32 32 0 0 1 45.254 0z"/><path d="m403.313 327.03 11.315 11.313a8 8 0 0 1 11.313 0l11.314-11.313a24 24 0 0 0 -33.942 0z"/><circle cx="256" cy="416" r="8.5"/><path d="m184 96h144a8 8 0 0 0 8-8v-50a14.015 14.015 0 0 0 -14-14h-132a14.015 14.015 0 0 0 -14 14v50a8 8 0 0 0 8 8zm104-16h-64v-8h64zm-96-40h128v40h-16v-16a8 8 0 0 0 -8-8h-80a8 8 0 0 0 -8 8v16h-16z"/><path d="m480 120h-96a16.019 16.019 0 0 0 -16 16v16h-32a8 8 0 0 0 -7.353 4.849l-18.2 42.477a55.858 55.858 0 0 0 -30.447-14.753v-16.573a8 8 0 0 0 -3.562-6.656l-44.438-29.625v-19.719h-16v24a8 8 0 0 0 3.562 6.656l44.438 29.625v12.3a55.616 55.616 0 0 0 -21.026 7.481l-45.852-38.21a8 8 0 0 0 -5.122-1.852h-64v-40a16.019 16.019 0 0 0 -16-16h-80a16.019 16.019 0 0 0 -16 16v120a8 8 0 0 0 8 8h96a8 8 0 0 0 8-8v-64h61.1l41.343 34.453a56.224 56.224 0 0 0 -5.152 6.636 40.04 40.04 0 0 0 -46.623 24.517 55.95 55.95 0 0 0 -42.087 62.394h-16.581a8 8 0 0 0 -6.4 3.2l-20.363 27.15-9.268-5.3a8 8 0 0 0 -7.938 0l-56 32a8 8 0 0 0 3.969 14.95v64a8 8 0 0 0 8 8h96a8 8 0 0 0 8-8v-64a8 8 0 0 0 3.969-14.946l-32.732-18.7 16.763-22.354h17.414a56.069 56.069 0 0 0 50.586 32h8v122a22.025 22.025 0 0 0 22 22h68a22.025 22.025 0 0 0 22-22v-122h8a56 56 0 0 0 7.5-111.5 55.561 55.561 0 0 0 -5.931-18.518l19.706-45.982h26.725v32a16.019 16.019 0 0 0 16 16h20.9l-4.49 13.47a8 8 0 0 0 7.59 10.53h48a8 8 0 0 0 7.589-10.53l-4.489-13.47h20.9a16.019 16.019 0 0 0 16-16v-64a16.019 16.019 0 0 0 -16-16zm-368 104h-80v-16h80zm0-32h-80v-80h80zm-32 145.214 25.875 14.786h-51.75zm8 86.786h-16v-24h16zm32-56v56h-16v-32a8 8 0 0 0 -8-8h-32a8 8 0 0 0 -8 8v32h-16v-56zm152-120a8 8 0 1 1 -8 8 8.009 8.009 0 0 1 8-8zm24 218a6.006 6.006 0 0 1 -6 6h-68a6.006 6.006 0 0 1 -6-6v-10h80zm0-26h-80v-96h80zm0-112h-80v-10a6.006 6.006 0 0 1 6-6h68a6.006 6.006 0 0 1 6 6zm64-40a40.045 40.045 0 0 1 -40 40h-8v-10a22.025 22.025 0 0 0 -22-22h-68a22.025 22.025 0 0 0 -22 22v10h-8a40 40 0 0 1 -5.938-79.559 8 8 0 0 0 6.6-6.051 24 24 0 0 1 33.05-16.334 8 8 0 0 0 10.415-3.764 39.758 39.758 0 0 1 27.873-21.486v32.57a24 24 0 1 0 16 0v-32.571a40.067 40.067 0 0 1 32 39.195 8 8 0 0 0 8 8 40.045 40.045 0 0 1 40 40zm24-152h96l.006 40h-96.006zm35.1 88 2.666-8h20.468l2.666 8zm60.9-24h-96v-8h96.009v8z"/><path d="m72 184a32 32 0 1 0 -32-32 32.036 32.036 0 0 0 32 32zm0-48a16 16 0 1 1 -16 16 16.019 16.019 0 0 1 16-16z"/><path d="m184 264h16v16h-16z"/><path d="m216 264h16v16h-16z"/><path d="m312 264h16v16h-16z"/><path d="m489.94 384.239-28.731-7.183a3.632 3.632 0 0 0 -.458-.352l-14.095-21.142a8 8 0 0 0 -6.656-3.562h-56a8 8 0 0 0 -6.656 3.562l-16 24a7.993 7.993 0 0 0 -1.344 4.438v40a8 8 0 0 0 8 8h9.376a24 24 0 0 0 45.248 0h10.752a24 24 0 0 0 45.248 0h9.376a8 8 0 0 0 8-8v-32a8 8 0 0 0 -6.06-7.761zm-48.888-8.239h-25.052v-8h19.719zm-52.771-8h11.719v8h-17.052zm11.719 64a8 8 0 1 1 8-8 8.009 8.009 0 0 1 -8 8zm56 0a8 8 0 1 1 8-8 8.009 8.009 0 0 1 -8 8zm24-16h-1.376a24 24 0 0 0 -45.248 0h-10.752a24 24 0 0 0 -45.248 0h-1.376v-24h79.015l24.985 6.246z"/></g></svg>